HIERARCHY
ROOT joint_0
{
	OFFSET 0.000000 0.000000 0.000000
	CHANNELS 6 Xposition Yposition Zposition Zrotation Yrotation Xrotation 
	JOINT joint_1
	{
		OFFSET 6.579712 -2.778931 100.531982
		CHANNELS 3 Zrotation Yrotation Xrotation
		JOINT joint_2
		{
			OFFSET -3.313232 -1.302856 91.974976
			CHANNELS 3 Zrotation Yrotation Xrotation
			JOINT joint_3
			{
				OFFSET -3.421509 -1.641846 91.864014
				CHANNELS 3 Zrotation Yrotation Xrotation
				JOINT joint_4
				{
					OFFSET 7.697388 -4.642578 123.278931
					CHANNELS 3 Zrotation Yrotation Xrotation
					JOINT joint_5
					{
						OFFSET 24.842529 -5.941528 79.695068
						CHANNELS 3 Zrotation Yrotation Xrotation
						End Site
						{
							OFFSET 0.000000 0.000000 0.000000
						}
					}
				}
				JOINT joint_6
				{
					OFFSET -0.159668 -29.112976 68.364014
					CHANNELS 3 Zrotation Yrotation Xrotation
					JOINT joint_7
					{
						OFFSET -18.356079 -115.987061 -20.069092
						CHANNELS 3 Zrotation Yrotation Xrotation
						JOINT joint_8
						{
							OFFSET 31.719482 -11.733276 -267.170898
							CHANNELS 3 Zrotation Yrotation Xrotation
							JOINT joint_9
							{
								OFFSET 29.329956 -5.879517 -234.654053
								CHANNELS 3 Zrotation Yrotation Xrotation
								End Site
								{
									OFFSET 0.000000 0.000000 0.000000
								}
							}
						}
					}
				}
				JOINT joint_10
				{
					OFFSET 8.802979 23.897949 69.798950
					CHANNELS 3 Zrotation Yrotation Xrotation
					JOINT joint_11
					{
						OFFSET 21.159058 115.524292 -19.981934
						CHANNELS 3 Zrotation Yrotation Xrotation
						JOINT joint_12
						{
							OFFSET 18.809204 5.403442 -268.593018
							CHANNELS 3 Zrotation Yrotation Xrotation
							JOINT joint_13
							{
								OFFSET 20.807861 0.421265 -235.639038
								CHANNELS 3 Zrotation Yrotation Xrotation
								End Site
								{
									OFFSET 0.000000 0.000000 0.000000
								}
							}
						}
					}
				}
			}
		}
	}
	JOINT joint_14
	{
		OFFSET -9.713379 -79.513916 -99.348022
		CHANNELS 3 Zrotation Yrotation Xrotation
		JOINT joint_15
		{
			OFFSET -40.607788 -6.518372 -502.938019
			CHANNELS 3 Zrotation Yrotation Xrotation
			JOINT joint_16
			{
				OFFSET -19.807617 -7.437378 -399.590012
				CHANNELS 3 Zrotation Yrotation Xrotation
				JOINT joint_17
				{
					OFFSET 171.701660 -44.751282 -77.782000
					CHANNELS 3 Zrotation Yrotation Xrotation
					End Site
					{
						OFFSET 0.000000 0.000000 0.000000
					}
				}
			}
		}
	}
	JOINT joint_18
	{
		OFFSET 17.854858 79.618652 -98.128052
		CHANNELS 3 Zrotation Yrotation Xrotation
		JOINT joint_19
		{
			OFFSET -24.848877 16.861816 -503.722992
			CHANNELS 3 Zrotation Yrotation Xrotation
			JOINT joint_20
			{
				OFFSET -30.162476 14.470093 -398.750008
				CHANNELS 3 Zrotation Yrotation Xrotation
				JOINT joint_21
				{
					OFFSET 176.096680 -10.987549 -80.021000
					CHANNELS 3 Zrotation Yrotation Xrotation
					End Site
					{
						OFFSET 0.000000 0.000000 0.000000
					}
				}
			}
		}
	}
}
MOTION
Frames: 18
Frame Time: 0.016667
-1623.969482 1061.157227 1098.348022 -0.308294 0.121243 0.098910 -0.087020 0.025130 0.047507 -0.089669 0.000312 -0.016267 -0.088651 0.002342 0.010113 -0.041247 0.032392 0.140059 0.000000 0.000000 0.000000 0.083903 -0.033744 -0.258509 0.040602 -0.113265 0.291287 -0.009338 0.075452 -0.059575 0.000000 0.000000 0.000000 -0.042132 -0.412772 0.816631 -0.078471 -0.065918 -1.111351 0.003473 0.007079 0.039169 0.000000 0.000000 0.000000 0.090178 0.005311 -0.377999 0.043907 -0.041099 0.202378 0.053719 -0.055620 0.009838 0.000000 0.000000 0.000000 0.147860 -0.034085 -0.212767 0.150017 0.175709 -0.114198 0.124644 -0.192396 0.044634 0.000000 0.000000 0.000000 
-1624.018188 1061.175293 1098.344971 -0.314837 0.118345 0.098507 -0.084138 0.027334 0.043349 -0.086607 0.000947 -0.014792 -0.085683 0.002357 0.009332 -0.042593 0.031116 0.144073 0.000000 0.000000 0.000000 0.075612 -0.030486 -0.253091 0.040268 -0.110301 0.289867 -0.009192 0.073311 -0.058841 0.000000 0.000000 0.000000 -0.042225 -0.409157 0.815241 -0.078243 -0.062640 -1.110595 0.003783 0.004618 0.042729 0.000000 0.000000 0.000000 0.092005 0.003971 -0.379669 0.045490 -0.039472 0.203233 0.055226 -0.051964 0.011474 0.000000 0.000000 0.000000 0.150016 -0.034638 -0.212853 0.152349 0.178936 -0.115290 0.126694 -0.192775 0.045542 0.000000 0.000000 0.000000 
-1624.075928 1061.193481 1098.339966 -0.320493 0.115165 0.098259 -0.081682 0.031926 0.038677 -0.084029 0.000054 -0.013920 -0.083104 0.003719 0.009138 -0.044522 0.027575 0.149416 0.000000 0.000000 0.000000 0.067885 -0.028023 -0.248014 0.039944 -0.108080 0.288381 -0.008889 0.070087 -0.057059 0.000000 0.000000 0.000000 -0.039753 -0.406391 0.813839 -0.078059 -0.060687 -1.109726 0.003913 0.001498 0.044266 0.000000 0.000000 0.000000 0.093568 0.002906 -0.381412 0.046845 -0.038837 0.203800 0.056451 -0.047459 0.013203 0.000000 0.000000 0.000000 0.152064 -0.036504 -0.213201 0.154665 0.184195 -0.116238 0.128653 -0.193617 0.046380 0.000000 0.000000 0.000000 
-1624.141602 1061.211182 1098.333984 -0.325232 0.111661 0.098079 -0.078696 0.038177 0.032035 -0.080845 -0.001601 -0.011952 -0.079975 0.005890 0.007799 -0.047047 0.026597 0.157282 0.000000 0.000000 0.000000 0.060289 -0.028617 -0.239348 0.039492 -0.107801 0.283726 -0.008995 0.075955 -0.056732 0.000000 0.000000 0.000000 -0.039894 -0.404971 0.810565 -0.077737 -0.060417 -1.106281 0.004272 0.001343 0.048340 0.000000 0.000000 0.000000 0.094852 0.002845 -0.382998 0.048001 -0.040471 0.204044 0.057369 -0.041144 0.015264 0.000000 0.000000 0.000000 0.153944 -0.039424 -0.213765 0.156882 0.191041 -0.116991 0.130517 -0.193073 0.047261 0.000000 0.000000 0.000000 
-1624.214233 1061.228149 1098.327026 -0.329081 0.108239 0.098462 -0.075775 0.044836 0.023473 -0.077648 -0.003423 -0.009495 -0.076817 0.009172 0.006751 -0.050175 0.026406 0.167273 0.000000 0.000000 0.000000 0.052942 -0.029644 -0.230134 0.038947 -0.107708 0.278425 -0.008988 0.080336 -0.055796 0.000000 0.000000 0.000000 -0.039988 -0.404272 0.806694 -0.077402 -0.061107 -1.102163 0.004544 0.001070 0.051422 0.000000 0.000000 0.000000 0.096006 0.002982 -0.385052 0.049034 -0.043583 0.204009 0.058090 -0.033671 0.017539 0.000000 0.000000 0.000000 0.155607 -0.043964 -0.214973 0.158972 0.200078 -0.117662 0.132183 -0.192731 0.048039 0.000000 0.000000 0.000000 
-1624.303345 1061.249878 1098.323975 -0.333399 0.103324 0.098489 -0.073488 0.057992 0.018547 -0.075358 -0.006835 -0.007802 -0.074516 0.012764 0.005390 -0.052866 0.024731 0.175505 0.000000 0.000000 0.000000 0.045576 -0.025921 -0.225503 0.038115 -0.104088 0.276568 -0.007028 0.052943 -0.045606 0.000000 0.000000 0.000000 -0.034694 -0.402757 0.806699 -0.077312 -0.060689 -1.101081 0.003511 -0.010834 0.039982 0.000000 0.000000 0.000000 0.097229 0.003036 -0.387498 0.050001 -0.045241 0.205013 0.058831 -0.026453 0.019756 0.000000 0.000000 0.000000 0.157242 -0.048740 -0.216379 0.161055 0.210907 -0.117553 0.133863 -0.191454 0.048882 0.000000 0.000000 0.000000 
-1624.406250 1061.280396 1098.324951 -0.338518 0.098335 0.098127 -0.071870 0.073149 0.020410 -0.074104 -0.008940 -0.009257 -0.073014 0.017473 0.007342 -0.053844 0.021691 0.177918 0.000000 0.000000 0.000000 0.037570 -0.015436 -0.229410 0.037037 -0.095897 0.279579 -0.003160 -0.010242 -0.027341 0.000000 0.000000 0.000000 -0.023538 -0.401437 0.806381 -0.077615 -0.060800 -1.104391 0.001800 -0.026186 0.020934 0.000000 0.000000 0.000000 0.098818 0.001917 -0.390680 0.051154 -0.046303 0.207211 0.059780 -0.017780 0.022446 0.000000 0.000000 0.000000 0.159288 -0.054828 -0.217754 0.163652 0.222979 -0.117769 0.135991 -0.189594 0.049966 0.000000 0.000000 0.000000 
-1624.524658 1061.315674 1098.328979 -0.343711 0.092339 0.097401 -0.070486 0.093245 0.026000 -0.073320 -0.011607 -0.011366 -0.071966 0.022027 0.008835 -0.054637 0.017770 0.179524 0.000000 0.000000 0.000000 0.027724 0.000365 -0.237938 0.035720 -0.084024 0.286554 0.002544 -0.105409 -0.000824 0.000000 0.000000 0.000000 -0.009787 -0.399264 0.809989 -0.078158 -0.059267 -1.110777 -0.001194 -0.052713 -0.012418 0.000000 0.000000 0.000000 0.100399 0.000444 -0.394094 0.052203 -0.046193 0.210132 0.060693 -0.009495 0.025019 0.000000 0.000000 0.000000 0.161159 -0.061794 -0.219312 0.166126 0.237196 -0.117186 0.138000 -0.187206 0.051027 0.000000 0.000000 0.000000 
-1624.662720 1061.347290 1098.344971 -0.347241 0.087024 0.097087 -0.068547 0.117205 0.028390 -0.071896 -0.016140 -0.012000 -0.070287 0.027566 0.010220 -0.055410 0.014657 0.181259 0.000000 0.000000 0.000000 0.008045 0.022018 -0.248864 0.033794 -0.068782 0.296739 0.011707 -0.251541 0.043083 0.000000 0.000000 0.000000 0.001134 -0.391781 0.823540 -0.078519 -0.050392 -1.115449 -0.008601 -0.123665 -0.094827 0.000000 0.000000 0.000000 0.101658 -0.004713 -0.397467 0.052871 -0.042134 0.212607 0.061294 -0.001500 0.027375 0.000000 0.000000 0.000000 0.162346 -0.073941 -0.222390 0.168090 0.257675 -0.113872 0.139519 -0.184023 0.051916 0.000000 0.000000 0.000000 
-1624.822388 1061.373169 1098.375977 -0.347854 0.083427 0.096914 -0.064829 0.146406 0.027331 -0.068612 -0.021171 -0.011626 -0.066850 0.031937 0.010183 -0.057284 0.011330 0.186477 0.000000 0.000000 0.000000 -0.029806 0.055502 -0.262135 0.030665 -0.045602 0.310631 0.025785 -0.475470 0.110516 0.000000 0.000000 0.000000 0.004252 -0.374671 0.854739 -0.078552 -0.027580 -1.118329 -0.022345 -0.260348 -0.247791 0.000000 0.000000 0.000000 0.102007 -0.015479 -0.399866 0.052672 -0.031992 0.213644 0.061139 0.004824 0.028953 0.000000 0.000000 0.000000 0.162564 -0.093721 -0.227265 0.169328 0.286569 -0.106407 0.140362 -0.180322 0.052530 0.000000 0.000000 0.000000 
-1625.001953 1061.396240 1098.418945 -0.346556 0.080215 0.096610 -0.060702 0.179544 0.024154 -0.064858 -0.027624 -0.009545 -0.062984 0.037535 0.009502 -0.058995 0.007942 0.191156 0.000000 0.000000 0.000000 -0.077087 0.094414 -0.277303 0.026938 -0.019282 0.327435 0.043235 -0.749925 0.194483 0.000000 0.000000 0.000000 0.005200 -0.352500 0.894866 -0.078344 0.001909 -1.118801 -0.040441 -0.440735 -0.449425 0.000000 0.000000 0.000000 0.101836 -0.029583 -0.401553 0.051975 -0.017984 0.213951 0.060533 0.011137 0.030324 0.000000 0.000000 0.000000 0.162011 -0.118272 -0.233125 0.169974 0.321519 -0.096197 0.140655 -0.175460 0.052966 0.000000 0.000000 0.000000 
-1625.197632 1061.420166 1098.463989 -0.346105 0.075227 0.096277 -0.056616 0.208908 0.021305 -0.061123 -0.032122 -0.008787 -0.059159 0.041698 0.008506 -0.060325 0.010318 0.195990 0.000000 0.000000 0.000000 -0.120993 0.125707 -0.293166 0.024556 -0.001375 0.350784 0.060961 -1.016951 0.281888 0.000000 0.000000 0.000000 0.006439 -0.332449 0.933217 -0.077958 0.028069 -1.114557 -0.060282 -0.634349 -0.670926 0.000000 0.000000 0.000000 0.101954 -0.043737 -0.403215 0.051546 -0.001889 0.214213 0.060236 0.017083 0.031739 0.000000 0.000000 0.000000 0.161816 -0.143628 -0.240068 0.170983 0.360615 -0.083831 0.141245 -0.172750 0.053404 0.000000 0.000000 0.000000 
-1625.409302 1061.443604 1098.512939 -0.345888 0.067168 0.095863 -0.053791 0.232631 0.016469 -0.058394 -0.033806 -0.006272 -0.056546 0.041875 0.007031 -0.060420 0.022312 0.199162 0.000000 0.000000 0.000000 -0.158219 0.147099 -0.312531 0.024071 0.005500 0.383006 0.078945 -1.268117 0.374304 0.000000 0.000000 0.000000 0.010974 -0.312899 0.967687 -0.077024 0.050614 -1.099793 -0.082795 -0.849239 -0.922781 0.000000 0.000000 0.000000 0.101987 -0.057186 -0.404423 0.051058 0.017722 0.214150 0.059931 0.022950 0.033130 0.000000 0.000000 0.000000 0.161967 -0.169512 -0.248429 0.172371 0.406480 -0.068598 0.142069 -0.173517 0.053730 0.000000 0.000000 0.000000 
-1625.638062 1061.467651 1098.566040 -0.346590 0.057539 0.095511 -0.051641 0.253361 0.010768 -0.056244 -0.035255 -0.003272 -0.054580 0.041356 0.004640 -0.060120 0.040510 0.202549 0.000000 0.000000 0.000000 -0.189199 0.160503 -0.331952 0.024820 0.004335 0.420974 0.097169 -1.511398 0.469992 0.000000 0.000000 0.000000 0.018277 -0.295255 0.998891 -0.075828 0.069143 -1.079146 -0.107014 -1.076908 -1.194310 0.000000 0.000000 0.000000 0.102090 -0.071103 -0.405708 0.050591 0.039374 0.214192 0.059678 0.029222 0.034650 0.000000 0.000000 0.000000 0.162520 -0.196546 -0.257971 0.174179 0.456653 -0.051210 0.143266 -0.175504 0.054150 0.000000 0.000000 0.000000 
-1625.879150 1061.494751 1098.608032 -0.350278 0.045578 0.094230 -0.047934 0.274939 0.007988 -0.052728 -0.037834 -0.001866 -0.051077 0.043411 0.003466 -0.059720 0.058676 0.205607 0.000000 0.000000 0.000000 -0.213149 0.160504 -0.343630 0.026795 -0.008156 0.459897 0.112309 -1.716094 0.548775 0.000000 0.000000 0.000000 0.021404 -0.291282 1.019759 -0.075662 0.074758 -1.070017 -0.127430 -1.263701 -1.423713 0.000000 0.000000 0.000000 0.103237 -0.081947 -0.406513 0.051260 0.058083 0.214547 0.060496 0.035502 0.036658 0.000000 0.000000 0.000000 0.164232 -0.218471 -0.265391 0.177011 0.500633 -0.036670 0.145498 -0.176384 0.055109 0.000000 0.000000 0.000000 
-1626.134766 1061.527588 1098.635986 -0.359782 0.030858 0.091627 -0.042222 0.300046 0.008942 -0.047461 -0.041021 -0.002136 -0.045652 0.047392 0.003986 -0.059945 0.078271 0.211011 0.000000 0.000000 0.000000 -0.223696 0.142314 -0.341960 0.029792 -0.034152 0.496085 0.123355 -1.871044 0.605048 0.000000 0.000000 0.000000 0.022000 -0.306005 1.025828 -0.077048 0.062388 -1.078669 -0.142087 -1.390404 -1.588753 0.000000 0.000000 0.000000 0.106359 -0.089154 -0.406589 0.054057 0.072961 0.214949 0.063340 0.041380 0.039478 0.000000 0.000000 0.000000 0.168073 -0.233210 -0.269818 0.181756 0.535079 -0.026102 0.149713 -0.174285 0.057155 0.000000 0.000000 0.000000 
-1626.403687 1061.563354 1098.652954 -0.372301 0.013498 0.088367 -0.035162 0.327275 0.012091 -0.041025 -0.046044 -0.003617 -0.038914 0.052677 0.005683 -0.059855 0.099661 0.215834 0.000000 0.000000 0.000000 -0.225749 0.111214 -0.332721 0.033967 -0.070775 0.533406 0.131266 -1.987483 0.644254 0.000000 0.000000 0.000000 0.019264 -0.333896 1.021809 -0.079515 0.037538 -1.099067 -0.153012 -1.475986 -1.712033 0.000000 0.000000 0.000000 0.110444 -0.093011 -0.406275 0.057941 0.084742 0.215221 0.067181 0.047387 0.042783 0.000000 0.000000 0.000000 0.172965 -0.242697 -0.272530 0.187384 0.563592 -0.017974 0.154843 -0.171133 0.059682 0.000000 0.000000 0.000000 
-1626.681885 1061.590332 1098.665039 -0.383308 -0.004192 0.084424 -0.028027 0.349311 0.015407 -0.034423 -0.050855 -0.004541 -0.032023 0.058778 0.007273 -0.059525 0.119971 0.219628 0.000000 0.000000 0.000000 -0.225424 0.074961 -0.319696 0.039076 -0.111911 0.572043 0.136187 -2.065650 0.667494 0.000000 0.000000 0.000000 0.013006 -0.369026 1.009687 -0.082480 0.005535 -1.125201 -0.160524 -1.527266 -1.796950 0.000000 0.000000 0.000000 0.113862 -0.095074 -0.404794 0.061277 0.092530 0.216133 0.070394 0.055018 0.046228 0.000000 0.000000 0.000000 0.177605 -0.249406 -0.272597 0.192718 0.585369 -0.012809 0.159795 -0.165150 0.062306 0.000000 0.000000 0.000000 
